<svg width="13" height="17" viewBox="0 0 13 17" fill="none" xmlns="http://www.w3.org/2000/svg">
<path fill-rule="evenodd" clip-rule="evenodd" d="M0.125 2.83334C0.125 1.65974 1.07639 0.708344 2.25 0.708344H10.75C11.9236 0.708344 12.875 1.65974 12.875 2.83334V15.5833C12.875 15.8613 12.7125 16.1135 12.4594 16.2284C12.2063 16.3432 11.9094 16.2994 11.7002 16.1164L6.5 11.5662L1.29977 16.1164C1.09061 16.2994 0.793734 16.3432 0.540638 16.2284C0.287543 16.1135 0.125 15.8613 0.125 15.5833V2.83334ZM2.25 2.12501C1.8588 2.12501 1.54167 2.44214 1.54167 2.83334V14.0223L6.03356 10.0919C6.30062 9.85826 6.69938 9.85826 6.96644 10.0919L11.4583 14.0223V2.83334C11.4583 2.44214 11.1412 2.12501 10.75 2.12501H2.25Z" fill="white"/>
</svg>
