
<svg width="13" height="13" viewBox="0 0 13 13" fill="none" xmlns="http://www.w3.org/2000/svg">
<path d="M2.04251 1.04079C1.76589 0.764173 1.3174 0.764173 1.04078 1.04079C0.764158 1.31742 0.764158 1.76591 1.04078 2.04253L5.4983 6.50005L1.04078 10.9576C0.764158 11.2342 0.764158 11.6827 1.04078 11.9593C1.3174 12.2359 1.76589 12.2359 2.04251 11.9593L6.50003 7.50178L10.9574 11.9592C11.2341 12.2358 11.6826 12.2358 11.9592 11.9592C12.2358 11.6826 12.2358 11.2341 11.9592 10.9575L7.50177 6.50005L11.9592 2.04264C12.2358 1.76601 12.2358 1.31752 11.9592 1.0409C11.6826 0.76428 11.2341 0.76428 10.9574 1.0409L6.50003 5.49831L2.04251 1.04079Z" fill="white"/>
</svg>
